DBRep_DrawableShape

CASCADE Topology V1, (c) Matra-Datavision
Locations 27
1
              1               0               0               0 
              0               1               0               0 
              0               0               1               0 
1
              1               0               0               0 
              0               1               0               0 
              0               0               1               0 
1
              1               0               0               0 
              0               1               0               0 
              0               0               1               0 
1
              1               0               0               0 
              0               1               0               0 
              0               0               1               0 
1
              1               0               0               0 
              0               1               0               0 
              0               0               1               0 
1
2.22044604925031e-16               0              -1             889 
              0               1               0 1.30423475217831e-12 
              1               0 2.22044604925031e-16               0 
1
              1               0               0               0 
              0               1               0               0 
              0               0               1               0 
1
              1               0               0               0 
              0               1               0               0 
              0               0               1               0 
1
              1               0               0               0 
              0               1               0               0 
              0               0               1               0 
1
              1               0               0               0 
              0               1               0               0 
              0               0               1               0 
1
             -1               0               0               0 
              0              -1               0             254 
              0               0               1             508 
1
              1               0               0               0 
              0               1               0               0 
              0               0               1               0 
1
              1               0               0               0 
              0               1               0               0 
              0               0               1               0 
1
              1               0               0               0 
              0               1               0               0 
              0               0               1               0 
1
              1               0               0               0 
              0               1               0           838.2 
              0               0               1               0 
1
              1               0               0               0 
              0               1               0               0 
              0               0               1               0 
1
              1               0               0               0 
              0               1               0               0 
              0               0               1               0 
1
             -1               0               0 329.955678841958 
              0              -1               0             254 
              0               0               1          1079.5 
1
             -1               0               0 -329.955678841958 
              0              -1               0             254 
              0               0               1          1079.5 
1
2.22044604925031e-16               0               1           -3429 
              0               1               0               0 
             -1               0 2.22044604925031e-16               0 
1
             -1               0               0            1270 
              0 2.22044604925031e-16               1            1016 
              0               1 -2.22044604925031e-16 1.4297230066519e-12 
1
              1               0               0               0 
              0               1               0               0 
              0               0               1               0 
1
              1               0               0               0 
              0               1               0               0 
              0               0               1               0 
1
              1               0               0               0 
              0               1               0               0 
              0               0               1               0 
1
              1               0               0               0 
              0               1               0               0 
              0               0               1               0 
1
2.22044604925031e-16              -1               0            4699 
              1 2.22044604925031e-16               0               0 
              0               0               1               0 
1
2.22044604925031e-16               1               0             381 
             -1 2.22044604925031e-16               0               0 
              0               0               1               0 
Curve2ds 112
1 0 -508 1 0 
1 3.1415926535897931 -508 1 0 
1 0 -508 1 0 
1 3.1415926535897931 -508 1 0 
1 0 508 1 0 
1 3.1415926535897931 508 1 0 
1 0 508 1 0 
1 3.1415926535897931 508 1 0 
1 0 508 1 0 
1 3.1415926535897931 508 1 0 
1 0 -508 1 0 
1 3.1415926535897931 -508 1 0 
1 0 0 1 0 
1 0 0 0 -1 
1 6.2831853071795862 0 0 -1 
1 3.1415926535897931 0 0 -1 
1 3.1415926535897931 0 0 -1 
1 3.1415926535897931 0 1 0 
1 0 0 1 0 
1 3.1415926535897931 0 1 0 
1 0 0 1 0 
1 3.1415926535897931 0 1 0 
1 0 0 1 0 
1 3.1415926535897931 0 1 0 
1 0 0 1 0 
1 3.1415926535897931 0 1 0 
1 0 0 1 0 
1 3.1415926535897931 0 1 0 
1 0 0 0 -1 
1 6.2831853071795862 0 0 -1 
1 3.1415926535897931 0 0 -1 
1 3.1415926535897931 0 0 -1 
1 3.1415926535897931 0 0 1 
1 3.1415926535897931 0 0 1 
1 0 0 0 1 
1 6.2831853071795862 0 0 1 
1 3.1415926535897931 0 0 1 
1 3.1415926535897931 0 0 1 
1 0 0 0 1 
1 6.2831853071795862 0 0 1 
1 3.1415926535897931 0 0 1 
1 3.1415926535897931 0 0 1 
1 0 0 0 1 
1 6.2831853071795862 0 0 1 
1 0 0 0 -1 
1 6.2831853071795862 0 0 -1 
1 3.1415926535897931 0 0 -1 
1 3.1415926535897931 0 0 -1 
1 0 254 1 0 
1 3.1415926535897931 254 1 0 
1 0 254 1 0 
1 3.1415926535897931 254 1 0 
1 0 254 1 0 
1 3.1415926535897931 254 1 0 
1 0 0 0 1 
1 6.2831853071795862 0 0 1 
1 0 0 1 0 
1 3.1415926535897931 0 0 1 
1 3.1415926535897931 0 0 1 
1 3.1415926535897931 0 1 0 
1 0 0 1 0 
1 3.1415926535897931 0 1 0 
1 0 0 1 0 
1 3.1415926535897931 0 1 0 
1 0 0 0 1 
1 6.2831853071795862 0 0 1 
1 3.1415926535897931 0 0 1 
1 3.1415926535897931 0 0 1 
1 0 0 1 0 
1 3.1415926535897931 0 1 0 
1 0 254 1 0 
1 3.1415926535897931 254 1 0 
1 0 0 0 1 
1 6.2831853071795862 0 0 1 
1 3.1415926535897931 0 0 1 
1 3.1415926535897931 0 0 1 
1 0 0 0 1 
1 6.2831853071795862 0 0 1 
1 3.1415926535897931 0 0 1 
1 3.1415926535897931 0 0 1 
1 3.1415926535897931 1066.8 -1 0 
1 3.1415926535897931 1066.8 1 0 
1 0 1066.8 0 -1 
1 6.2831853071795862 1066.8 0 -1 
1 3.1415926535897931 127 -1 0 
1 3.1415926535897931 1066.8 0 -1 
1 3.1415926535897931 1066.8 0 -1 
1 3.1415926535897931 127 1 0 
1 3.1415926535897931 127 -1 0 
1 3.1415926535897931 127 1 0 
1 0 127 0 -1 
1 6.2831853071795862 127 0 -1 
1 3.1415926535897931 50.800000000000011 -1 0 
1 3.1415926535897931 127 0 -1 
1 3.1415926535897931 127 0 -1 
1 3.1415926535897931 50.800000000000011 1 0 
1 0 76.199999999999989 1 0 
1 3.1415926535897931 76.199999999999989 1 0 
1 0 0 1 0 
1 3.1415926535897931 0 1 0 
1 3.1415926535897931 0 0 1 
1 3.1415926535897931 0 0 1 
1 0 0 0 1 
1 6.2831853071795862 0 0 1 
1 0 0 1 0 
1 3.1415926535897931 0 1 0 
1 3.1415926535897931 0 0 1 
1 3.1415926535897931 0 0 1 
1 0 5080 1 0 
1 0 0 0 1 
1 6.2831853071795862 0 0 1 
1 3.1415926535897931 5080 1 0 
Curves 141
1 1016 -508 -1905 0 1 0 
1 1016 0 -1905 -1 0 0 
1 -3556 0 -1905 0 -1 0 
1 -3556 -508 -1905 1 0 0 
1 1016 -508 -1905 0 0 1 
1 1016 -508 1905 0 1 0 
1 1016 0 -1905 0 0 1 
1 -3556 -508 -1905 0 0 1 
1 -3556 -508 1905 1 0 0 
2 -2349.5 -508 -329.95567884195799 0 1 0 -1 0 0 0 -0 1 127
2 -2349.5 -508 -329.95567884195799 0 1 0 1 0 0 0 0 -1 127
2 -2349.5 -508 329.95567884195799 0 1 0 -1 0 0 0 -0 1 127
2 -2349.5 -508 329.95567884195799 0 1 0 1 0 0 0 0 -1 127
2 -190.5 -508 -329.95567884195799 0 -1 0 1 0 0 -0 0 1 127
2 -190.5 -508 -329.95567884195799 0 -1 0 -1 0 0 -0 -0 -1 127
2 -190.5 -508 329.95567884195799 0 -1 0 1 0 0 -0 0 1 127
2 -190.5 -508 329.95567884195799 0 -1 0 -1 0 0 -0 -0 -1 127
2 381 -508 0 0 -1 0 1 0 0 -0 0 1 127
2 381 -508 0 0 -1 0 -1 0 0 -0 -0 -1 127
2 -2921 -508 0 0 1 0 -1 0 0 0 -0 1 127
2 -2921 -508 0 0 1 0 1 0 0 0 0 -1 127
2 -2349.5 0 -329.95567884195799 0 1 0 -1 0 0 0 -0 1 127
1 -2476.5 0 -329.95567884195799 0 -1 0 
1 -2222.5 0 -329.95567884195799 0 -1 0 
1 1016 0 1905 -1 0 0 
1 -3556 0 -1905 0 0 1 
2 -2349.5 0 -329.95567884195799 0 1 0 1 0 0 0 0 -1 127
2 -2349.5 0 329.95567884195799 0 1 0 -1 0 0 0 -0 1 127
2 -2349.5 0 329.95567884195799 0 1 0 1 0 0 0 0 -1 127
2 -190.5 0 -329.95567884195799 0 -1 0 1 0 0 -0 0 1 127
2 -190.5 0 -329.95567884195799 0 -1 0 -1 0 0 -0 -0 -1 127
2 -190.5 0 329.95567884195799 0 -1 0 1 0 0 -0 0 1 127
2 -190.5 0 329.95567884195799 0 -1 0 -1 0 0 -0 -0 -1 127
2 381 0 0 0 -1 0 1 0 0 -0 0 1 127
2 381 0 0 0 -1 0 -1 0 0 -0 -0 -1 127
2 -2921 0 0 0 1 0 -1 0 0 0 -0 1 127
2 -2921 0 0 0 1 0 1 0 0 0 0 -1 127
1 -2476.5 0 329.95567884195799 0 -1 0 
1 -2222.5 0 329.95567884195799 0 -1 0 
1 -317.5 0 -329.95567884195799 0 -1 0 
1 -63.5 0 -329.95567884195799 0 -1 0 
1 -317.5 0 329.95567884195799 0 -1 0 
1 -63.5 0 329.95567884195799 0 -1 0 
1 -3556 0 1905 0 -1 0 
1 254 0 0 0 -1 0 
1 508 0 0 0 -1 0 
1 -3048 0 0 0 -1 0 
1 -2794 0 0 0 -1 0 
1 0 -508 0 0 1 0 
1 381 0 0 0 -1 0 
1 -190.5 0 329.95567884195799 0 -1 0 
1 -190.5 0 -329.95567884195799 0 -1 0 
1 -2921 -508 0 0 1 0 
1 -2349.5 -508 329.95567884195799 0 1 0 
1 -2349.5 -508 -329.95567884195799 0 1 0 
1 -1270 0 1270 0 0 -1 
1 -1270 0 0 0 1 0 
1 -1270 1524 0 0 0 1 
1 -1270 1524 254 0 -1 0 
1 -1270 254 254 0 0 1 
1 -1270 254 1270 0 -1 0 
1 -1270 0 1270 1 0 0 
1 1270 0 1270 0 0 -1 
1 -1270 0 0 1 0 0 
2 329.95567884195799 0 1079.5 0 -1 0 1 0 0 -0 0 1 127
2 329.95567884195799 0 1079.5 0 -1 0 -1 0 0 -0 -0 -1 127
2 -329.95567884195799 0 1079.5 0 -1 0 1 0 0 -0 0 1 127
2 -329.95567884195799 0 1079.5 0 -1 0 -1 0 0 -0 -0 -1 127
2 0 0 508 0 -1 0 1 0 0 -0 0 1 127
2 0 0 508 0 -1 0 -1 0 0 -0 -0 -1 127
1 456.95567884195799 254 1079.5 0 -1 0 
2 329.95567884195799 254 1079.5 0 -1 0 1 0 0 -0 0 1 127
1 202.95567884188179 254 1079.5 0 -1 0 
2 329.95567884195799 254 1079.5 0 -1 0 -1 0 0 -0 -0 -1 127
1 -1270 254 254 1 0 0 
1 1270 254 254 0 0 1 
1 -1270 254 1270 1 0 0 
2 -329.95567884195799 254 1079.5 0 -1 0 1 0 0 -0 0 1 127
2 -329.95567884195799 254 1079.5 0 -1 0 -1 0 0 -0 -0 -1 127
2 0 254 508 0 -1 0 1 0 0 -0 0 1 127
2 0 254 508 0 -1 0 -1 0 0 -0 -0 -1 127
1 -202.95567884188179 254 1079.5 0 -1 0 
1 -456.95567884195799 254 1079.5 0 -1 0 
1 -1270 1524 254 1 0 0 
1 1270 1524 254 0 -1 0 
2 0 1016 254 0 0 -1 -1 0 0 0 1 0 127
2 0 1016 254 0 0 -1 1 0 0 0 -1 0 127
1 -1270 1524 0 1 0 0 
1 1270 1524 0 0 0 1 
1 1270 0 0 0 1 0 
2 0 1016 0 0 0 -1 -1 0 0 0 1 0 127
2 0 1016 0 0 0 -1 1 0 0 0 -1 0 127
1 1270 254 1270 0 -1 0 
1 -127 1016 254 0 0 -1 
1 127 1016 254 0 0 -1 
1 127 254 508 0 -1 0 
1 -127 254 508 0 -1 0 
1 0 0 889 0 1 0 
1 0 254 508 0 -1 0 
1 -329.95567884195799 254 1079.5 0 -1 0 
1 329.95567884195799 254 1079.5 0 -1 0 
1 0 1016 254 0 0 -1 
2 0 939.79999999999995 0 0 -1 0 -1 0 0 -0 -0 -1 127
2 0 939.79999999999995 0 0 1 0 -1 0 0 0 -0 1 127
1 127 939.79999999999995 0 0 -1 0 
2 0 0 0 0 -1 0 -1 0 0 -0 -0 -1 127
1 -127 939.79999999999995 0 0 -1 0 
2 0 0 0 0 1 0 -1 0 0 0 -0 1 127
2 0 0 0 0 -1 0 -1 0 0 -0 -0 -1 190.5
2 0 0 0 0 1 0 -1 0 0 0 -0 1 190.5
1 190.5 0 0 0 -1 0 
2 0 -76.199999999999989 0 0 -1 0 -1 0 0 -0 -0 -1 190.5
1 -190.5 0 0 0 -1 0 
2 0 -76.199999999999989 0 0 1 0 -1 0 0 0 -0 1 190.5
1 0 -76.199999999999989 0 0 1 0 
1 254 -76.199999999999989 -190.5 0 1 0 
1 254 0 -190.5 -1 0 0 
1 -254 0 -190.5 0 -1 0 
1 -254 -76.199999999999989 -190.5 1 0 0 
1 254 -76.199999999999989 -190.5 0 0 1 
1 254 -76.199999999999989 190.5 0 1 0 
1 254 0 -190.5 0 0 1 
1 -254 -76.199999999999989 -190.5 0 0 1 
1 -254 -76.199999999999989 190.5 1 0 0 
2 0 -76.199999999999989 0 0 -1 0 1 0 0 -0 0 1 127
2 0 -76.199999999999989 0 0 -1 0 -1 0 0 -0 -0 -1 127
1 -254 0 -190.5 0 0 1 
1 -254 0 190.5 0 -1 0 
1 254 0 190.5 -1 0 0 
2 0 0 0 0 -1 0 1 0 0 -0 0 1 127
2 0 0 0 0 -1 0 -1 0 0 -0 -0 -1 127
1 -127 0 0 0 -1 0 
1 127 0 0 0 -1 0 
1 0 0 0 0 -1 0 
2 0 0 0 1 0 0 0 0 1 0 -1 0 127
2 0 0 0 1 0 0 0 0 -1 -0 1 0 127
1 0 0 -127 1 0 0 
2 5080 0 0 1 0 0 0 0 1 0 -1 0 127
1 0 0 127 1 0 0 
2 5080 0 0 1 0 0 0 0 -1 -0 1 0 127
1 0 0 0 1 0 0 
Polygon3D 0
PolygonOnTriangulations 0
Surfaces 53
1 0 0 -1905 0 0 1 -1 0 0 0 -1 0 
1 1016 -508 -1905 1 0 0 -0 1 0 0 -0 1 
1 1016 0 -1905 0 1 0 -1 0 0 0 -0 1 
1 -3556 0 -1905 -1 0 0 0 -1 0 0 0 1 
1 -3556 -508 -1905 0 -1 0 1 0 0 -0 0 1 
1 0 0 1905 0 0 1 -1 0 0 0 -1 0 
2 -2349.5 0 -329.95567884195799 0 1 0 -1 0 0 0 -0 1 127
2 -2349.5 0 -329.95567884195799 0 1 0 -1 0 0 0 -0 1 127
2 -2349.5 0 329.95567884195799 0 1 0 -1 0 0 0 -0 1 127
2 -2349.5 0 329.95567884195799 0 1 0 -1 0 0 0 -0 1 127
2 -190.5 0 -329.95567884195799 0 -1 0 1 0 0 -0 0 1 127
2 -190.5 0 -329.95567884195799 0 -1 0 1 0 0 -0 0 1 127
2 -190.5 0 329.95567884195799 0 -1 0 1 0 0 -0 0 1 127
2 -190.5 0 329.95567884195799 0 -1 0 1 0 0 -0 0 1 127
2 381 0 0 0 -1 0 1 0 0 -0 0 1 127
2 381 0 0 0 -1 0 1 0 0 -0 0 1 127
2 -2921 0 0 0 1 0 -1 0 0 0 -0 1 127
2 -2921 0 0 0 1 0 -1 0 0 0 -0 1 127
1 -1270 0 0 1 0 0 0 0 1 0 -1 0 
1 -1270 0 1270 0 -1 0 0 0 -1 1 0 0 
1 -1270 0 0 0 0 -1 0 1 0 1 -0 0 
1 -1270 1524 0 0 1 0 0 -0 1 1 0 -0 
1 -1270 1524 254 0 0 1 0 -1 0 1 0 -0 
1 -1270 254 254 0 1 0 0 -0 1 1 0 -0 
1 -1270 254 1270 0 0 1 0 -1 0 1 0 -0 
1 1270 0 0 1 0 0 0 0 1 0 -1 0 
2 329.95567884195799 254 1079.5 0 -1 0 1 0 0 -0 0 1 127
2 329.95567884195799 254 1079.5 0 -1 0 1 0 0 -0 0 1 127
2 -329.95567884195799 254 1079.5 0 -1 0 1 0 0 -0 0 1 127
2 -329.95567884195799 254 1079.5 0 -1 0 1 0 0 -0 0 1 127
2 0 254 508 0 -1 0 1 0 0 -0 0 1 127
2 0 254 508 0 -1 0 1 0 0 -0 0 1 127
2 0 1016 254 0 0 -1 -1 0 0 0 1 0 127
2 0 1016 254 0 0 -1 -1 0 0 0 1 0 127
1 0 939.79999999999995 0 0 1 0 1 0 0 0 0 -1 
2 0 -127 0 0 1 0 1 0 0 0 0 -1 127
2 0 -127 0 0 1 0 1 0 0 0 0 -1 127
1 0 0 0 0 1 0 1 0 0 0 0 -1 
2 0 -127 0 0 1 0 1 0 0 0 0 -1 190.5
2 0 -127 0 0 1 0 1 0 0 0 0 -1 190.5
1 0 -76.199999999999989 0 0 1 0 1 0 0 0 0 -1 
1 0 0 -190.5 0 0 1 -1 0 0 0 -1 0 
1 254 -76.199999999999989 -190.5 1 0 0 -0 1 0 0 -0 1 
1 254 0 -190.5 0 1 0 -1 0 0 0 -0 1 
1 -254 0 -190.5 -1 0 0 0 -1 0 0 0 1 
1 -254 -76.199999999999989 -190.5 0 -1 0 1 0 0 -0 0 1 
1 0 0 190.5 0 0 1 -1 0 0 0 -1 0 
2 0 0 0 0 -1 0 1 0 0 -0 0 1 127
2 0 0 0 0 -1 0 1 0 0 -0 0 1 127
1 0 0 0 1 0 0 0 0 1 0 -1 0 
2 0 0 0 1 0 0 0 0 1 0 -1 0 127
2 0 0 0 1 0 0 0 0 1 0 -1 0 127
1 5080 0 0 1 0 0 0 0 1 0 -1 0 
Triangulations 0

TShapes 412
Ve
1e-07
1016 -508 -1905
0 0

0101101
*
Ve
1e-07
1016 0 -1905
0 0

0101101
*
Ed
 1e-07 1 1 0
1  1 0 0 508
4 C0 1 0 2 0
0

0101000
+412 0 -411 0 *
Ve
1e-07
-3556 0 -1905
0 0

0101101
*
Ed
 1e-07 1 1 0
1  2 0 0 4572
4 C0 1 0 3 0
0

0101000
+411 0 -409 0 *
Ve
1e-07
-3556 -508 -1905
0 0

0101101
*
Ed
 1e-07 1 1 0
1  3 0 0 508
4 C0 1 0 4 0
0

0101000
+409 0 -407 0 *
Ed
 1e-07 1 1 0
1  4 0 0 4572
4 C0 1 0 5 0
0

0101000
+407 0 -412 0 *
Wi

0101100
+410 0 +408 0 +406 0 +405 0 *
Fa
0  1e-07 1 0

0111000
+404 0 *
Ve
1e-07
1016 -508 1905
0 0

0101101
*
Ed
 1e-07 1 1 0
1  5 0 0 3810
4 C0 2 0 5 0
0

0101000
+412 0 -402 0 *
Ve
1e-07
1016 0 1905
0 0

0101101
*
Ed
 1e-07 1 1 0
1  6 0 0 508
4 C0 2 0 6 0
0

0101000
+402 0 -400 0 *
Ed
 1e-07 1 1 0
1  7 0 0 3810
4 C0 2 0 3 0
0

0101000
+411 0 -400 0 *
Wi

0101100
-410 0 +401 0 +399 0 -398 0 *
Fa
0  1e-07 2 0

0111000
-397 0 *
Ve
1e-07
-3556 -508 1905
0 0

0101101
*
Ed
 1e-07 1 1 0
1  8 0 0 3810
4 C0 5 0 4 0
0

0101000
+407 0 -395 0 *
Ed
 1e-07 1 1 0
1  9 0 0 4572
4 C0 5 0 6 0
0

0101000
+395 0 -402 0 *
Wi

0101100
-405 0 +394 0 +393 0 -401 0 *
Ve
1e-07
-2476.5 -508 -329.955678841958
0 0

0101101
*
Ve
1e-07
-2222.5 -508 -329.955678841958
0 0

0101101
*
Ed
 1e-07 1 1 0
1  10 0 0 3.14159265358979
2  1 7 0 0 3.14159265358979
4 C0 5 0 7 0
0

0101000
+391 0 -390 0 *
Ed
 1e-07 1 1 0
1  11 0 0 3.14159265358979
2  2 8 0 0 3.14159265358979
4 C0 5 0 8 0
0

0101000
+390 0 -391 0 *
Wi

0101100
-389 0 -388 0 *
Ve
1e-07
-2476.5 -508 329.955678841958
0 0

0101101
*
Ve
1e-07
-2222.5 -508 329.955678841958
0 0

0101101
*
Ed
 1e-07 1 1 0
1  12 0 0 3.14159265358979
2  3 9 0 0 3.14159265358979
4 C0 5 0 9 0
0

0101000
+386 0 -385 0 *
Ed
 1e-07 1 1 0
1  13 0 0 3.14159265358979
2  4 10 0 0 3.14159265358979
4 C0 5 0 10 0
0

0101000
+385 0 -386 0 *
Wi

0101100
-384 0 -383 0 *
Ve
1e-07
-63.5 -508 -329.955678841958
0 0

0101101
*
Ve
1e-07
-317.5 -508 -329.955678841958
0 0

0101101
*
Ed
 1e-07 1 1 0
1  14 0 0 3.14159265358979
2  5 11 0 0 3.14159265358979
4 C0 5 0 11 0
0

0101000
+381 0 -380 0 *
Ed
 1e-07 1 1 0
1  15 0 0 3.14159265358979
2  6 12 0 0 3.14159265358979
4 C0 5 0 12 0
0

0101000
+380 0 -381 0 *
Wi

0101100
+379 0 +378 0 *
Ve
1e-07
-63.5 -508 329.955678841958
0 0

0101101
*
Ve
1e-07
-317.5 -508 329.955678841958
0 0

0101101
*
Ed
 1e-07 1 1 0
1  16 0 0 3.14159265358979
2  7 13 0 0 3.14159265358979
4 C0 5 0 13 0
0

0101000
+376 0 -375 0 *
Ed
 1e-07 1 1 0
1  17 0 0 3.14159265358979
2  8 14 0 0 3.14159265358979
4 C0 5 0 14 0
0

0101000
+375 0 -376 0 *
Wi

0101100
+374 0 +373 0 *
Ve
1e-07
508 -508 0
0 0

0101101
*
Ve
1e-07
254 -508 0
0 0

0101101
*
Ed
 1e-07 1 1 0
1  18 0 0 3.14159265358979
2  9 15 0 0 3.14159265358979
4 C0 5 0 15 0
0

0101000
+371 0 -370 0 *
Ed
 1e-07 1 1 0
1  19 0 0 3.14159265358979
2  10 16 0 0 3.14159265358979
4 C0 5 0 16 0
0

0101000
+370 0 -371 0 *
Wi

0101100
+369 0 +368 0 *
Ve
1e-07
-3048 -508 0
0 0

0101101
*
Ve
1e-07
-2794 -508 0
0 0

0101101
*
Ed
 1e-07 1 1 0
1  20 0 0 3.14159265358979
2  11 17 0 0 3.14159265358979
4 C0 5 0 17 0
0

0101000
+366 0 -365 0 *
Ed
 1e-07 1 1 0
1  21 0 0 3.14159265358979
2  12 18 0 0 3.14159265358979
4 C0 5 0 18 0
0

0101000
+365 0 -366 0 *
Wi

0101100
-364 0 -363 0 *
Fa
0  1e-07 5 0

0111000
-392 0 -387 0 -382 0 -377 0 -372 0 -367 0 -362 0 *
Ve
1e-07
-2476.5 0 -329.955678841958
0 0

0101101
*
Ve
1e-07
-2222.5 0 -329.955678841958
0 0

0101101
*
Ed
 1e-07 1 1 0
1  22 0 0 3.14159265358979
2  13 7 0 0 3.14159265358979
4 C0 7 0 3 0
0

0101000
+360 0 -359 0 *
Ed
 1e-07 1 1 0
1  23 0 0 508
2  14 7 0 0 508
2  15 8 0 0 508
4 CN 7 0 8 0
0

0101000
+360 0 -391 0 *
Ed
 1e-07 1 1 0
1  24 0 0 508
2  16 7 0 0 508
2  17 8 0 0 508
4 CN 7 0 8 0
0

0101000
+359 0 -390 0 *
Wi

0101100
-358 0 +357 0 +389 0 -356 0 *
Fa
0  1e-07 7 0

0111000
+355 0 *
Ve
1e-07
-3556 0 1905
0 0

0101101
*
Ed
 1e-07 1 1 0
1  25 0 0 4572
4 C0 3 0 6 0
0

0101000
+400 0 -353 0 *
Ed
 1e-07 1 1 0
1  26 0 0 3810
4 C0 3 0 4 0
0

0101000
+409 0 -353 0 *
Wi

0101100
-408 0 +398 0 +352 0 -351 0 *
Ed
 1e-07 1 1 0
1  27 0 0 3.14159265358979
2  18 8 0 0 3.14159265358979
4 C0 3 0 8 0
0

0101000
+359 0 -360 0 *
Wi

0101100
+358 0 +349 0 *
Ve
1e-07
-2476.5 0 329.955678841958
0 0

0101101
*
Ve
1e-07
-2222.5 0 329.955678841958
0 0

0101101
*
Ed
 1e-07 1 1 0
1  28 0 0 3.14159265358979
2  19 9 0 0 3.14159265358979
4 C0 3 0 9 0
0

0101000
+347 0 -346 0 *
Ed
 1e-07 1 1 0
1  29 0 0 3.14159265358979
2  20 10 0 0 3.14159265358979
4 C0 3 0 10 0
0

0101000
+346 0 -347 0 *
Wi

0101100
+345 0 +344 0 *
Ve
1e-07
-63.5 0 -329.955678841958
0 0

0101101
*
Ve
1e-07
-317.5 0 -329.955678841958
0 0

0101101
*
Ed
 1e-07 1 1 0
1  30 0 0 3.14159265358979
2  21 11 0 0 3.14159265358979
4 C0 3 0 11 0
0

0101000
+342 0 -341 0 *
Ed
 1e-07 1 1 0
1  31 0 0 3.14159265358979
2  22 12 0 0 3.14159265358979
4 C0 3 0 12 0
0

0101000
+341 0 -342 0 *
Wi

0101100
-340 0 -339 0 *
Ve
1e-07
-63.5 0 329.955678841958
0 0

0101101
*
Ve
1e-07
-317.5 0 329.955678841958
0 0

0101101
*
Ed
 1e-07 1 1 0
1  32 0 0 3.14159265358979
2  23 13 0 0 3.14159265358979
4 C0 3 0 13 0
0

0101000
+337 0 -336 0 *
Ed
 1e-07 1 1 0
1  33 0 0 3.14159265358979
2  24 14 0 0 3.14159265358979
4 C0 3 0 14 0
0

0101000
+336 0 -337 0 *
Wi

0101100
-335 0 -334 0 *
Ve
1e-07
508 0 0
0 0

0101101
*
Ve
1e-07
254 0 0
0 0

0101101
*
Ed
 1e-07 1 1 0
1  34 0 0 3.14159265358979
2  25 15 0 0 3.14159265358979
4 C0 3 0 15 0
0

0101000
+332 0 -331 0 *
Ed
 1e-07 1 1 0
1  35 0 0 3.14159265358979
2  26 16 0 0 3.14159265358979
4 C0 3 0 16 0
0

0101000
+331 0 -332 0 *
Wi

0101100
-330 0 -329 0 *
Ve
1e-07
-3048 0 0
0 0

0101101
*
Ve
1e-07
-2794 0 0
0 0

0101101
*
Ed
 1e-07 1 1 0
1  36 0 0 3.14159265358979
2  27 17 0 0 3.14159265358979
4 C0 3 0 17 0
0

0101000
+327 0 -326 0 *
Ed
 1e-07 1 1 0
1  37 0 0 3.14159265358979
2  28 18 0 0 3.14159265358979
4 C0 3 0 18 0
0

0101000
+326 0 -327 0 *
Wi

0101100
+325 0 +324 0 *
Fa
0  1e-07 3 0

0111000
-350 0 -348 0 -343 0 -338 0 -333 0 -328 0 -323 0 *
Wi

0101100
-349 0 +356 0 +388 0 -357 0 *
Fa
0  1e-07 8 0

0111000
+321 0 *
Ed
 1e-07 1 1 0
1  38 0 0 508
2  29 9 0 0 508
2  30 10 0 0 508
4 CN 9 0 10 0
0

0101000
+347 0 -386 0 *
Ed
 1e-07 1 1 0
1  39 0 0 508
2  31 9 0 0 508
2  32 10 0 0 508
4 CN 9 0 10 0
0

0101000
+346 0 -385 0 *
Wi

0101100
-345 0 +319 0 +384 0 -318 0 *
Fa
0  1e-07 9 0

0111000
+317 0 *
Wi

0101100
-344 0 +318 0 +383 0 -319 0 *
Fa
0  1e-07 10 0

0111000
+315 0 *
Ed
 1e-07 1 1 0
1  40 0 0 508
2  33 11 0 0 508
2  34 12 0 0 508
4 CN 11 0 12 0
0

0101000
+341 0 -380 0 *
Ed
 1e-07 1 1 0
1  41 0 0 508
2  35 11 0 0 508
2  36 12 0 0 508
4 CN 11 0 12 0
0

0101000
+342 0 -381 0 *
Wi

0101100
+340 0 +313 0 -379 0 -312 0 *
Fa
0  1e-07 11 0

0111000
+311 0 *
Wi

0101100
+339 0 +312 0 -378 0 -313 0 *
Fa
0  1e-07 12 0

0111000
+309 0 *
Ed
 1e-07 1 1 0
1  42 0 0 508
2  37 13 0 0 508
2  38 14 0 0 508
4 CN 13 0 14 0
0

0101000
+336 0 -375 0 *
Ed
 1e-07 1 1 0
1  43 0 0 508
2  39 13 0 0 508
2  40 14 0 0 508
4 CN 13 0 14 0
0

0101000
+337 0 -376 0 *
Wi

0101100
+335 0 +307 0 -374 0 -306 0 *
Fa
0  1e-07 13 0

0111000
+305 0 *
Wi

0101100
+334 0 +306 0 -373 0 -307 0 *
Fa
0  1e-07 14 0

0111000
+303 0 *
Ed
 1e-07 1 1 0
1  44 0 0 508
4 C0 6 0 4 0
0

0101000
+353 0 -395 0 *
Wi

0101100
-399 0 -393 0 -301 0 -352 0 *
Fa
0  1e-07 6 0

0111000
-300 0 *
Wi

0101100
-406 0 +351 0 +301 0 -394 0 *
Fa
0  1e-07 4 0

0111000
-298 0 *
Ed
 1e-07 1 1 0
1  45 0 0 508
2  41 15 0 0 508
2  42 16 0 0 508
4 CN 15 0 16 0
0

0101000
+331 0 -370 0 *
Ed
 1e-07 1 1 0
1  46 0 0 508
2  43 15 0 0 508
2  44 16 0 0 508
4 CN 15 0 16 0
0

0101000
+332 0 -371 0 *
Wi

0101100
+330 0 +296 0 -369 0 -295 0 *
Fa
0  1e-07 15 0

0111000
+294 0 *
Wi

0101100
+329 0 +295 0 -368 0 -296 0 *
Fa
0  1e-07 16 0

0111000
+292 0 *
Ed
 1e-07 1 1 0
1  47 0 0 508
2  45 17 0 0 508
2  46 18 0 0 508
4 CN 17 0 18 0
0

0101000
+327 0 -366 0 *
Ed
 1e-07 1 1 0
1  48 0 0 508
2  47 17 0 0 508
2  48 18 0 0 508
4 CN 17 0 18 0
0

0101000
+326 0 -365 0 *
Wi

0101100
-325 0 +290 0 +364 0 -289 0 *
Fa
0  1e-07 17 0

0111000
+288 0 *
Wi

0101100
-324 0 +289 0 +363 0 -290 0 *
Fa
0  1e-07 18 0

0111000
+286 0 *
Sh

0101100
-403 0 +396 0 +361 0 -354 0 +322 0 -320 0 -316 0 -314 0 -310 0 -308 0 
-304 0 -302 0 +299 0 +297 0 -293 0 -291 0 -287 0 -285 0 *
So

0100000
+284 0 *
Ve
1e-07
0 -508 0
0 0

0101101
*
Ve
1e-07
0 0 0
0 0

0101101
*
Ed
 1e-07 1 1 0
1  49 0 0 508
0

0101000
+282 0 -281 0 *
Ve
1e-07
381 0 0
0 0

0101101
*
Ve
1e-07
381 -508 0
0 0

0101101
*
Ed
 1e-07 1 1 0
1  50 0 0 508
0

0101000
+279 0 -278 0 *
Ve
1e-07
-190.5 0 329.955678841958
0 0

0101101
*
Ve
1e-07
-190.5 -508 329.955678841958
0 0

0101101
*
Ed
 1e-07 1 1 0
1  51 0 0 508
0

0101000
+276 0 -275 0 *
Ve
1e-07
-190.5 0 -329.955678841958
0 0

0101101
*
Ve
1e-07
-190.5 -508 -329.955678841958
0 0

0101101
*
Ed
 1e-07 1 1 0
1  52 0 0 508
0

0101000
+273 0 -272 0 *
Ve
1e-07
-2921 -508 0
0 0

0101101
*
Ve
1e-07
-2921 0 0
0 0

0101101
*
Ed
 1e-07 1 1 0
1  53 0 0 508
0

0101000
+270 0 -269 0 *
Ve
1e-07
-2349.5 -508 329.955678841958
0 0

0101101
*
Ve
1e-07
-2349.5 0 329.955678841958
0 0

0101101
*
Ed
 1e-07 1 1 0
1  54 0 0 508
0

0101000
+267 0 -266 0 *
Ve
1e-07
-2349.5 -508 -329.955678841958
0 0

0101101
*
Ve
1e-07
-2349.5 0 -329.955678841958
0 0

0101101
*
Ed
 1e-07 1 1 0
1  55 0 0 508
0

0101000
+264 0 -263 0 *
Co

0100000
+280 0 +277 0 +274 0 +271 0 +268 0 +265 0 +262 0 *
Co

0100000
+283 3 +261 4 *
Ve
1e-07
-1270 0 1270
0 0

0101101
*
Ve
1e-07
-1270 0 0
0 0

0101101
*
Ed
 1e-07 1 1 0
1  56 0 0 1270
4 C0 19 0 20 0
0

0101000
+259 0 -258 0 *
Ve
1e-07
-1270 1524 0
0 0

0101101
*
Ed
 1e-07 1 1 0
1  57 0 0 1524
4 C0 19 0 21 0
0

0101000
+258 0 -256 0 *
Ve
1e-07
-1270 1524 254
0 0

0101101
*
Ed
 1e-07 1 1 0
1  58 0 0 254
4 C0 19 0 22 0
0

0101000
+256 0 -254 0 *
Ve
1e-07
-1270 254 254
0 0

0101101
*
Ed
 1e-07 1 1 0
1  59 0 0 1270
4 C0 19 0 23 0
0

0101000
+254 0 -252 0 *
Ve
1e-07
-1270 254 1270
0 0

0101101
*
Ed
 1e-07 1 1 0
1  60 0 0 1016
4 C0 19 0 24 0
0

0101000
+252 0 -250 0 *
Ed
 1e-07 1 1 0
1  61 0 0 254
4 C0 19 0 25 0
0

0101000
+250 0 -259 0 *
Wi

0101100
+257 0 +255 0 +253 0 +251 0 +249 0 +248 0 *
Fa
0  1e-07 19 0

0111000
+247 0 *
Ve
1e-07
1270 0 1270
0 0

0101101
*
Ed
 1e-07 1 1 0
1  62 0 0 2540
4 C0 20 0 25 0
0

0101000
+259 0 -245 0 *
Ve
1e-07
1270 0 0
0 0

0101101
*
Ed
 1e-07 1 1 0
1  63 0 0 1270
4 C0 20 0 26 0
0

0101000
+245 0 -243 0 *
Ed
 1e-07 1 1 0
1  64 0 0 2540
4 C0 20 0 21 0
0

0101000
+258 0 -243 0 *
Wi

0101100
-257 0 +244 0 +242 0 -241 0 *
Ve
1e-07
456.955678841958 0 1079.5
0 0

0101101
*
Ve
1e-07
202.955678841882 0 1079.5
0 0

0101101
*
Ed
 1e-07 1 1 0
1  65 0 0 3.14159265358979
2  49 27 0 0 3.14159265358979
4 C0 20 0 27 0
0

0101000
+239 0 -238 0 *
Ed
 1e-07 1 1 0
1  66 0 0 3.14159265358979
2  50 28 0 0 3.14159265358979
4 C0 20 0 28 0
0

0101000
+238 0 -239 0 *
Wi

0101100
+237 0 +236 0 *
Ve
1e-07
-202.955678841882 0 1079.5
0 0

0101101
*
Ve
1e-07
-456.955678841958 0 1079.5
0 0

0101101
*
Ed
 1e-07 1 1 0
1  67 0 0 3.14159265358979
2  51 29 0 0 3.14159265358979
4 C0 20 0 29 0
0

0101000
+234 0 -233 0 *
Ed
 1e-07 1 1 0
1  68 0 0 3.14159265358979
2  52 30 0 0 3.14159265358979
4 C0 20 0 30 0
0

0101000
+233 0 -234 0 *
Wi

0101100
+232 0 +231 0 *
Ve
1e-07
127 0 508
0 0

0101101
*
Ve
1e-07
-127 0 508
0 0

0101101
*
Ed
 1e-07 1 1 0
1  69 0 0 3.14159265358979
2  53 31 0 0 3.14159265358979
4 C0 20 0 31 0
0

0101000
+229 0 -228 0 *
Ed
 1e-07 1 1 0
1  70 0 0 3.14159265358979
2  54 32 0 0 3.14159265358979
4 C0 20 0 32 0
0

0101000
+228 0 -229 0 *
Wi

0101100
+227 0 +226 0 *
Fa
0  1e-07 20 0

0111000
-240 0 -235 0 -230 0 -225 0 *
Ve
1e-07
456.955678841958 254 1079.5
0 0

0101101
*
Ed
 1e-07 1 1 0
1  71 0 0 254
2  55 27 0 0 254
2  56 28 0 0 254
4 CN 27 0 28 0
0

0101000
+223 0 -239 0 *
Ve
1e-07
202.955678841882 254 1079.5
0 0

0101101
*
Ed
 1e-07 1 1 0
1  72 0 0 3.14159265358979
2  57 27 0 0 3.14159265358979
4 C0 27 0 24 0
0

0101000
+223 0 -221 0 *
Ed
 1e-07 1 1 0
1  73 0 0 254
2  58 27 0 0 254
2  59 28 0 0 254
4 CN 27 0 28 0
0

0101000
+221 0 -238 0 *
Wi

0101100
-237 0 -222 0 +220 0 +219 0 *
Fa
0  1e-07 27 0

0111000
+218 0 *
Ed
 1e-07 1 1 0
1  74 0 0 3.14159265358979
2  60 28 0 0 3.14159265358979
4 C0 28 0 24 0
0

0101000
+221 0 -223 0 *
Wi

0101100
-236 0 -219 0 +216 0 +222 0 *
Fa
0  1e-07 28 0

0111000
+215 0 *
Ve
1e-07
1270 254 254
0 0

0101101
*
Ed
 1e-07 1 1 0
1  75 0 0 2540
4 C0 24 0 23 0
0

0101000
+252 0 -213 0 *
Ve
1e-07
1270 254 1270
0 0

0101101
*
Ed
 1e-07 1 1 0
1  76 0 0 1016
4 C0 24 0 26 0
0

0101000
+213 0 -211 0 *
Ed
 1e-07 1 1 0
1  77 0 0 2540
4 C0 24 0 25 0
0

0101000
+250 0 -211 0 *
Wi

0101100
-249 0 +212 0 +210 0 -209 0 *
Wi

0101100
-220 0 -216 0 *
Ve
1e-07
-202.955678841882 254 1079.5
0 0

0101101
*
Ve
1e-07
-456.955678841958 254 1079.5
0 0

0101101
*
Ed
 1e-07 1 1 0
1  78 0 0 3.14159265358979
2  61 29 0 0 3.14159265358979
4 C0 24 0 29 0
0

0101000
+206 0 -205 0 *
Ed
 1e-07 1 1 0
1  79 0 0 3.14159265358979
2  62 30 0 0 3.14159265358979
4 C0 24 0 30 0
0

0101000
+205 0 -206 0 *
Wi

0101100
-204 0 -203 0 *
Ve
1e-07
127 254 508
0 0

0101101
*
Ve
1e-07
-127 254 508
0 0

0101101
*
Ed
 1e-07 1 1 0
1  80 0 0 3.14159265358979
2  63 31 0 0 3.14159265358979
4 C0 24 0 31 0
0

0101000
+201 0 -200 0 *
Ed
 1e-07 1 1 0
1  81 0 0 3.14159265358979
2  64 32 0 0 3.14159265358979
4 C0 24 0 32 0
0

0101000
+200 0 -201 0 *
Wi

0101100
-199 0 -198 0 *
Fa
0  1e-07 24 0

0111000
-208 0 -207 0 -202 0 -197 0 *
Ed
 1e-07 1 1 0
1  82 0 0 254
2  65 29 0 0 254
2  66 30 0 0 254
4 CN 29 0 30 0
0

0101000
+206 0 -234 0 *
Ed
 1e-07 1 1 0
1  83 0 0 254
2  67 29 0 0 254
2  68 30 0 0 254
4 CN 29 0 30 0
0

0101000
+205 0 -233 0 *
Wi

0101100
-232 0 -195 0 +204 0 +194 0 *
Fa
0  1e-07 29 0

0111000
+193 0 *
Wi

0101100
-231 0 -194 0 +203 0 +195 0 *
Fa
0  1e-07 30 0

0111000
+191 0 *
Ve
1e-07
1270 1524 254
0 0

0101101
*
Ed
 1e-07 1 1 0
1  84 0 0 2540
4 C0 23 0 22 0
0

0101000
+254 0 -189 0 *
Ed
 1e-07 1 1 0
1  85 0 0 1270
4 C0 23 0 26 0
0

0101000
+189 0 -213 0 *
Wi

0101100
-251 0 +188 0 +187 0 -212 0 *
Ve
1e-07
-127 1016 254
0 0

0101101
*
Ve
1e-07
127 1016 254
0 0

0101101
*
Ed
 1e-07 1 1 0
1  86 0 0 3.14159265358979
2  69 33 0 0 3.14159265358979
4 C0 23 0 33 0
0

0101000
+185 0 -184 0 *
Ed
 1e-07 1 1 0
1  87 0 0 3.14159265358979
2  70 34 0 0 3.14159265358979
4 C0 23 0 34 0
0

0101000
+184 0 -185 0 *
Wi

0101100
-183 0 -182 0 *
Fa
0  1e-07 23 0

0111000
-186 0 -181 0 *
Ve
1e-07
1270 1524 0
0 0

0101101
*
Ed
 1e-07 1 1 0
1  88 0 0 2540
4 C0 22 0 21 0
0

0101000
+256 0 -179 0 *
Ed
 1e-07 1 1 0
1  89 0 0 254
4 C0 22 0 26 0
0

0101000
+179 0 -189 0 *
Wi

0101100
-253 0 +178 0 +177 0 -188 0 *
Fa
0  1e-07 22 0

0111000
-176 0 *
Ed
 1e-07 1 1 0
1  90 0 0 1524
4 C0 21 0 26 0
0

0101000
+243 0 -179 0 *
Wi

0101100
-255 0 +241 0 +174 0 -178 0 *
Ve
1e-07
-127 1016 0
0 0

0101101
*
Ve
1e-07
127 1016 0
0 0

0101101
*
Ed
 1e-07 1 1 0
1  91 0 0 3.14159265358979
2  71 33 0 0 3.14159265358979
4 C0 21 0 33 0
0

0101000
+172 0 -171 0 *
Ed
 1e-07 1 1 0
1  92 0 0 3.14159265358979
2  72 34 0 0 3.14159265358979
4 C0 21 0 34 0
0

0101000
+171 0 -172 0 *
Wi

0101100
+170 0 +169 0 *
Fa
0  1e-07 21 0

0111000
-173 0 -168 0 *
Ed
 1e-07 1 1 0
1  93 0 0 254
4 C0 26 0 25 0
0

0101000
+211 0 -245 0 *
Wi

0101100
-242 0 -166 0 -210 0 -187 0 -177 0 -174 0 *
Fa
0  1e-07 26 0

0111000
-165 0 *
Wi

0101100
-248 0 +209 0 +166 0 -244 0 *
Fa
0  1e-07 25 0

0111000
-163 0 *
Ed
 1e-07 1 1 0
1  94 0 0 254
2  73 33 0 0 254
2  74 34 0 0 254
4 CN 33 0 34 0
0

0101000
+185 0 -172 0 *
Ed
 1e-07 1 1 0
1  95 0 0 254
2  75 33 0 0 254
2  76 34 0 0 254
4 CN 33 0 34 0
0

0101000
+184 0 -171 0 *
Wi

0101100
-170 0 -161 0 +183 0 +160 0 *
Fa
0  1e-07 33 0

0111000
+159 0 *
Wi

0101100
-169 0 -160 0 +182 0 +161 0 *
Fa
0  1e-07 34 0

0111000
+157 0 *
Ed
 1e-07 1 1 0
1  96 0 0 254
2  77 31 0 0 254
2  78 32 0 0 254
4 CN 31 0 32 0
0

0101000
+201 0 -229 0 *
Ed
 1e-07 1 1 0
1  97 0 0 254
2  79 31 0 0 254
2  80 32 0 0 254
4 CN 31 0 32 0
0

0101000
+200 0 -228 0 *
Wi

0101100
-227 0 -155 0 +199 0 +154 0 *
Fa
0  1e-07 31 0

0111000
+153 0 *
Wi

0101100
-226 0 -154 0 +198 0 +155 0 *
Fa
0  1e-07 32 0

0111000
+151 0 *
Sh

0101100
-246 0 +224 0 -217 0 -214 0 +196 0 -192 0 -190 0 +180 0 +175 0 +167 0 
+164 0 +162 0 -158 0 -156 0 -152 0 -150 0 *
So

0100000
+149 0 *
Ve
1e-07
0 0 889
0 0

0101101
*
Ve
1e-07
0 1524 889
0 0

0101101
*
Ed
 1e-07 1 1 0
1  98 0 0 1524
0

0101000
+147 0 -146 0 *
Ve
1e-07
0 254 508
0 0

0101101
*
Ve
1e-07
0 0 508
0 0

0101101
*
Ed
 1e-07 1 1 0
1  99 0 0 254
0

0101000
+144 0 -143 0 *
Ve
1e-07
-329.955678841958 254 1079.5
0 0

0101101
*
Ve
1e-07
-329.955678841958 0 1079.5
0 0

0101101
*
Ed
 1e-07 1 1 0
1  100 0 0 254
0

0101000
+141 0 -140 0 *
Ve
1e-07
329.955678841958 254 1079.5
0 0

0101101
*
Ve
1e-07
329.955678841958 0 1079.5
0 0

0101101
*
Ed
 1e-07 1 1 0
1  101 0 0 254
0

0101000
+138 0 -137 0 *
Ve
1e-07
0 1016 254
0 0

0101101
*
Ve
1e-07
0 1016 0
0 0

0101101
*
Ed
 1e-07 1 1 0
1  102 0 0 254
0

0101000
+135 0 -134 0 *
Co

0100000
+145 0 +142 0 +139 0 +136 0 +133 0 *
Co

0100000
+148 8 +132 9 *
Ve
1e-07
-127 939.8 0
0 0

0101101
*
Ve
1e-07
127 939.8 0
0 0

0101101
*
Ed
 1e-07 1 1 0
1  103 0 0 3.14159265358979
2  81 36 0 0 3.14159265358979
4 C0 35 0 36 0
0

0101000
+130 0 -129 0 *
Ed
 1e-07 1 1 0
1  104 0 0 3.14159265358979
2  82 37 0 0 3.14159265358979
4 C0 35 0 37 0
0

0101000
+130 0 -129 0 *
Wi

0101100
+128 0 -127 0 *
Fa
0  1e-07 35 0

0111000
-126 0 *
Ve
1e-07
127 0 0
0 0

0101101
*
Ed
 1e-07 1 1 0
1  105 0 0 939.8
2  83 36 0 0 939.8
2  84 37 0 0 939.8
4 CN 36 0 37 0
0

0101000
+129 0 -124 0 *
Ve
1e-07
-127 0 0
0 0

0101101
*
Ed
 1e-07 1 1 0
1  106 0 0 3.14159265358979
2  85 36 0 0 3.14159265358979
4 C0 36 0 38 0
0

0101000
+122 0 -124 0 *
Ed
 1e-07 1 1 0
1  107 0 0 939.8
2  86 36 0 0 939.8
2  87 37 0 0 939.8
4 CN 36 0 37 0
0

0101000
+130 0 -122 0 *
Wi

0101100
+128 0 +123 0 -121 0 -120 0 *
Fa
0  1e-07 36 0

0111000
+119 0 *
Ed
 1e-07 1 1 0
1  108 0 0 3.14159265358979
2  88 37 0 0 3.14159265358979
4 C0 37 0 38 0
0

0101000
+122 0 -124 0 *
Wi

0101100
+117 0 -123 0 -127 0 +120 0 *
Fa
0  1e-07 37 0

0111000
+116 0 *
Ve
1e-07
-190.5 0 0
0 0

0101101
*
Ve
1e-07
190.5 0 0
0 0

0101101
*
Ed
 1e-07 1 1 0
1  109 0 0 3.14159265358979
2  89 39 0 0 3.14159265358979
4 C0 38 0 39 0
0

0101000
+114 0 -113 0 *
Ed
 1e-07 1 1 0
1  110 0 0 3.14159265358979
2  90 40 0 0 3.14159265358979
4 C0 38 0 40 0
0

0101000
+114 0 -113 0 *
Wi

0101100
+112 0 -111 0 *
Wi

0101100
+117 0 -121 0 *
Fa
0  1e-07 38 0

0111000
-110 0 -109 0 *
Ve
1e-07
190.5 -76.2 0
0 0

0101101
*
Ed
 1e-07 1 1 0
1  111 0 0 76.2
2  91 39 0 0 76.2
2  92 40 0 0 76.2
4 CN 39 0 40 0
0

0101000
+113 0 -107 0 *
Ve
1e-07
-190.5 -76.2 0
0 0

0101101
*
Ed
 1e-07 1 1 0
1  112 0 0 3.14159265358979
2  93 39 0 0 3.14159265358979
4 C0 39 0 41 0
0

0101000
+105 0 -107 0 *
Ed
 1e-07 1 1 0
1  113 0 0 76.2
2  94 39 0 0 76.2
2  95 40 0 0 76.2
4 CN 39 0 40 0
0

0101000
+114 0 -105 0 *
Wi

0101100
+112 0 +106 0 -104 0 -103 0 *
Fa
0  1e-07 39 0

0111000
+102 0 *
Ed
 1e-07 1 1 0
1  114 0 0 3.14159265358979
2  96 40 0 0 3.14159265358979
4 C0 40 0 41 0
0

0101000
+105 0 -107 0 *
Wi

0101100
+100 0 -106 0 -111 0 +103 0 *
Fa
0  1e-07 40 0

0111000
+99 0 *
Wi

0101100
-104 0 +100 0 *
Fa
0  1e-07 41 0

0111000
+97 0 *
Sh

0101100
+125 0 +118 0 +115 0 +108 0 +101 0 +98 0 -96 0 *
So

0100000
+95 0 *
Ve
1e-07
0 -76.2 0
0 0

0101101
*
Ve
1e-07
0 939.8 0
0 0

0101101
*
Ed
 1e-07 1 1 0
1  115 0 0 1016
0

0101000
+93 0 -92 0 *
Co

0100000
+91 0 *
Co

0100000
+94 13 +90 14 *
Ve
1e-07
254 -76.2 -190.5
0 0

0101101
*
Ve
1e-07
254 0 -190.5
0 0

0101101
*
Ed
 1e-07 1 1 0
1  116 0 0 76.2
4 C0 42 0 43 0
0

0101000
+88 0 -87 0 *
Ve
1e-07
-254 0 -190.5
0 0

0101101
*
Ed
 1e-07 1 1 0
1  117 0 0 508
4 C0 42 0 44 0
0

0101000
+87 0 -85 0 *
Ve
1e-07
-254 -76.2 -190.5
0 0

0101101
*
Ed
 1e-07 1 1 0
1  118 0 0 76.2
4 C0 42 0 45 0
0

0101000
+85 0 -83 0 *
Ed
 1e-07 1 1 0
1  119 0 0 508
4 C0 42 0 46 0
0

0101000
+83 0 -88 0 *
Wi

0101100
+86 0 +84 0 +82 0 +81 0 *
Fa
0  1e-07 42 0

0111000
+80 0 *
Ve
1e-07
254 -76.2 190.5
0 0

0101101
*
Ed
 1e-07 1 1 0
1  120 0 0 381
4 C0 43 0 46 0
0

0101000
+88 0 -78 0 *
Ve
1e-07
254 0 190.5
0 0

0101101
*
Ed
 1e-07 1 1 0
1  121 0 0 76.2
4 C0 43 0 47 0
0

0101000
+78 0 -76 0 *
Ed
 1e-07 1 1 0
1  122 0 0 381
4 C0 43 0 44 0
0

0101000
+87 0 -76 0 *
Wi

0101100
-86 0 +77 0 +75 0 -74 0 *
Fa
0  1e-07 43 0

0111000
-73 0 *
Ve
1e-07
-254 -76.2 190.5
0 0

0101101
*
Ed
 1e-07 1 1 0
1  123 0 0 381
4 C0 46 0 45 0
0

0101000
+83 0 -71 0 *
Ed
 1e-07 1 1 0
1  124 0 0 508
4 C0 46 0 47 0
0

0101000
+71 0 -78 0 *
Wi

0101100
-81 0 +70 0 +69 0 -77 0 *
Ve
1e-07
127 -76.2 0
0 0

0101101
*
Ve
1e-07
-127 -76.2 0
0 0

0101101
*
Ed
 1e-07 1 1 0
1  125 0 0 3.14159265358979
2  97 48 0 0 3.14159265358979
4 C0 46 0 48 0
0

0101000
+67 0 -66 0 *
Ed
 1e-07 1 1 0
1  126 0 0 3.14159265358979
2  98 49 0 0 3.14159265358979
4 C0 46 0 49 0
0

0101000
+66 0 -67 0 *
Wi

0101100
+65 0 +64 0 *
Fa
0  1e-07 46 0

0111000
-68 0 -63 0 *
Ve
1e-07
-254 0 190.5
0 0

0101101
*
Ed
 1e-07 1 1 0
1  127 0 0 381
4 C0 45 0 44 0
0

0101000
+85 0 -61 0 *
Ed
 1e-07 1 1 0
1  128 0 0 76.2
4 C0 45 0 47 0
0

0101000
+61 0 -71 0 *
Wi

0101100
-82 0 +60 0 +59 0 -70 0 *
Fa
0  1e-07 45 0

0111000
-58 0 *
Ed
 1e-07 1 1 0
1  129 0 0 508
4 C0 44 0 47 0
0

0101000
+76 0 -61 0 *
Wi

0101100
-84 0 +74 0 +56 0 -60 0 *
Ve
1e-07
127 0 0
0 0

0101101
*
Ve
1e-07
-127 0 0
0 0

0101101
*
Ed
 1e-07 1 1 0
1  130 0 0 3.14159265358979
2  99 48 0 0 3.14159265358979
4 C0 44 0 48 0
0

0101000
+54 0 -53 0 *
Ed
 1e-07 1 1 0
1  131 0 0 3.14159265358979
2  100 49 0 0 3.14159265358979
4 C0 44 0 49 0
0

0101000
+53 0 -54 0 *
Wi

0101100
-52 0 -51 0 *
Fa
0  1e-07 44 0

0111000
-55 0 -50 0 *
Wi

0101100
-75 0 -69 0 -59 0 -56 0 *
Fa
0  1e-07 47 0

0111000
-48 0 *
Ed
 1e-07 1 1 0
1  132 0 0 76.2
2  101 48 0 0 76.2
2  102 49 0 0 76.2
4 CN 48 0 49 0
0

0101000
+53 0 -66 0 *
Ed
 1e-07 1 1 0
1  133 0 0 76.2
2  103 48 0 0 76.2
2  104 49 0 0 76.2
4 CN 48 0 49 0
0

0101000
+54 0 -67 0 *
Wi

0101100
+52 0 +46 0 -65 0 -45 0 *
Fa
0  1e-07 48 0

0111000
+44 0 *
Wi

0101100
+51 0 +45 0 -64 0 -46 0 *
Fa
0  1e-07 49 0

0111000
+42 0 *
Sh

0101100
-79 0 +72 0 +62 0 +57 0 +49 0 +47 0 -43 0 -41 0 *
So

0100000
+40 0 *
Ve
1e-07
0 0 0
0 0

0101101
*
Ve
1e-07
0 -76.2 0
0 0

0101101
*
Ed
 1e-07 1 1 0
1  134 0 0 76.2
0

0101000
+38 0 -37 0 *
Co

0100000
+36 0 *
Co

0100000
+39 16 +35 17 *
Co

0100000
+89 12 +34 15 *
Co

0100000
+33 11 +33 18 +33 19 *
Co

0100000
+131 7 +32 10 *
Co

0100000
+31 6 +31 20 *
Ve
1e-07
0 0 127
0 0

0101101
*
Ve
1e-07
0 0 -127
0 0

0101101
*
Ed
 1e-07 1 1 0
1  135 0 0 3.14159265358979
2  105 51 0 0 3.14159265358979
4 C0 50 0 51 0
0

0101000
+29 0 -28 0 *
Ed
 1e-07 1 1 0
1  136 0 0 3.14159265358979
2  106 52 0 0 3.14159265358979
4 C0 50 0 52 0
0

0101000
+28 0 -29 0 *
Wi

0101100
+27 0 +26 0 *
Fa
0  1e-07 50 0

0111000
+25 0 *
Ve
1e-07
5080 0 -127
0 0

0101101
*
Ed
 1e-07 1 1 0
1  137 0 0 5080
2  107 51 0 0 5080
2  108 52 0 0 5080
4 CN 51 0 52 0
0

0101000
+28 0 -23 0 *
Ve
1e-07
5080 0 127
0 0

0101101
*
Ed
 1e-07 1 1 0
1  138 0 0 3.14159265358979
2  109 51 0 0 3.14159265358979
4 C0 51 0 53 0
0

0101000
+21 0 -23 0 *
Ed
 1e-07 1 1 0
1  139 0 0 5080
2  110 51 0 0 5080
2  111 52 0 0 5080
4 CN 51 0 52 0
0

0101000
+29 0 -21 0 *
Wi

0101100
+22 0 -20 0 -19 0 +27 0 *
Fa
0  1e-07 51 0

0111000
+18 0 *
Ed
 1e-07 1 1 0
1  140 0 0 3.14159265358979
2  112 52 0 0 3.14159265358979
4 C0 52 0 53 0
0

0101000
+23 0 -21 0 *
Wi

0101100
+19 0 -16 0 -22 0 +26 0 *
Fa
0  1e-07 52 0

0111000
+15 0 *
Wi

0101100
-20 0 -16 0 *
Fa
0  1e-07 53 0

0111000
-13 0 *
Sh

0101100
-24 0 +17 0 +14 0 +12 0 *
So

0100000
+11 0 *
Ve
1e-07
0 0 0
0 0

0101101
*
Ve
1e-07
5080 0 0
0 0

0101101
*
Ed
 1e-07 1 1 0
1  141 0 0 5080
0

0101000
+9 0 -8 0 *
Co

0100000
+7 0 *
Co

0100000
+10 23 +6 24 *
Co

0100000
+34 26 +34 27 *
Co

0100000
+5 22 +4 25 *
Co

0100000
+260 2 +30 5 +3 21 *
Co

1100000
+2 1 *

+1 0 